<svg id="Group_442" data-name="Group 442" xmlns="http://www.w3.org/2000/svg" width="60" height="60" viewBox="0 0 60 60">
  <rect id="Rectangle_659" data-name="Rectangle 659" width="60" height="60" rx="30" fill="#232323"/>
  <path id="Path_672" data-name="Path 672" d="M59.024,1.626H49.651V1.4a1.4,1.4,0,0,0-1.4-1.4H46.628a1.4,1.4,0,0,0-1.4,1.4v.229H42.97a.381.381,0,0,0-.381.381V5.08H39.516a.381.381,0,0,0-.381.381V19.685q0,.019,0,.038c0,.005,0,.01,0,.015s0,.014,0,.022,0,.012,0,.018l0,.018.006.017.007.018.007.016.009.018.009.015.011.017.011.016.011.014.023.026,0,0,3.861,3.861h0l.026.024.013.01.017.012.016.01.016.009.017.008.017.008.017.006.019.006.017,0,.019,0,.02,0,.017,0,.038,0H54.553a.381.381,0,0,0,.381-.381V21.9h4.089a.381.381,0,0,0,.381-.381V2.007A.381.381,0,0,0,59.024,1.626ZM45.993,1.4a.636.636,0,0,1,.635-.635h1.626a.636.636,0,0,1,.635.635v.229h-2.9Zm0,4.445h1.88v1.88h-1.88Zm1.751,2.642a.634.634,0,0,1-.507.254h-.61a.634.634,0,0,1-.507-.254Zm-4.393-6.1h1.88V5.08h-1.88ZM43,21.514v1.112l-2.56-2.56H43Zm11.176,0v1.651H43.758v-3.48a.381.381,0,0,0-.381-.381H39.9V5.842h5.334v1.88H42.158a.381.381,0,0,0,0,.762h3.127A1.4,1.4,0,0,0,46.628,9.5h.61a1.4,1.4,0,0,0,1.344-1.016h3.533a.381.381,0,0,0,0-.762h-3.48V5.842h5.537V21.514Zm4.471-.381H54.934V5.461a.381.381,0,0,0-.381-.381H48.635V3.226a.381.381,0,1,0-.762,0V5.08h-1.88V2.388H58.643V21.133Z" transform="translate(-19.405 19.036)" fill="#fff"/>
</svg>
