<svg id="focus" xmlns="http://www.w3.org/2000/svg" width="15.837" height="15.331" viewBox="0 0 15.837 15.331">
  <path id="Path_254" data-name="Path 254" d="M37.273,125.143l.148-.231-.148-.231a8.624,8.624,0,0,0-1.779-1.875,8.326,8.326,0,0,0-10.511,0,8.712,8.712,0,0,0-1.793,1.874l-.151.233.151.233a8.712,8.712,0,0,0,1.793,1.874,8.326,8.326,0,0,0,10.511,0A8.619,8.619,0,0,0,37.273,125.143Zm-2.4,1.216a7.363,7.363,0,0,1-9.278,0,8.511,8.511,0,0,1-1.451-1.446,8.511,8.511,0,0,1,1.451-1.446,7.363,7.363,0,0,1,9.278,0,8.394,8.394,0,0,1,1.44,1.447A8.4,8.4,0,0,1,34.877,126.359Zm0,0" transform="translate(-22.313 -117.247)" fill="#0049a0"/>
  <path id="Path_255" data-name="Path 255" d="M168.709,165.867a2.752,2.752,0,1,0,2.842,2.751A2.8,2.8,0,0,0,168.709,165.867Zm0,4.586a1.836,1.836,0,1,1,1.9-1.835A1.868,1.868,0,0,1,168.709,170.453Zm0,0" transform="translate(-160.79 -160.952)" fill="#0049a0"/>
  <path id="Path_256" data-name="Path 256" d="M.946.916H2.92V0H0V2.792H.946Zm0,0" fill="#0049a0"/>
  <path id="Path_257" data-name="Path 257" d="M419.375,0V.916h1.974V2.792h.946V0Zm0,0" transform="translate(-406.458)" fill="#0049a0"/>
  <path id="Path_258" data-name="Path 258" d="M.946,420.5H0v2.792H2.92v-.916H.946Zm0,0" transform="translate(0 -407.962)" fill="#0049a0"/>
  <path id="Path_259" data-name="Path 259" d="M421.349,422.377h-1.974v.916h2.92V420.5h-.946Zm0,0" transform="translate(-406.458 -407.962)" fill="#0049a0"/>
</svg>
