<svg xmlns="http://www.w3.org/2000/svg" width="27" height="27" viewBox="0 0 27 27">
  <g id="Group_410" data-name="Group 410" transform="translate(-333 -102)">
    <path id="Icon_awesome-user-alt" data-name="Icon awesome-user-alt" d="M5.5,6.187A3.094,3.094,0,1,0,2.406,3.094,3.095,3.095,0,0,0,5.5,6.187Zm2.75.688H7.066a3.74,3.74,0,0,1-3.132,0H2.75A2.75,2.75,0,0,0,0,9.625v.344A1.032,1.032,0,0,0,1.031,11H9.969A1.032,1.032,0,0,0,11,9.969V9.625A2.75,2.75,0,0,0,8.25,6.875Z" transform="translate(341 110)" fill="#fff"/>
    <g id="Ellipse_98" data-name="Ellipse 98" transform="translate(333 102)" fill="none" stroke="#fff" stroke-width="1">
      <circle cx="13.5" cy="13.5" r="13.5" stroke="none"/>
      <circle cx="13.5" cy="13.5" r="13" fill="none"/>
    </g>
  </g>
</svg>
