<svg xmlns="http://www.w3.org/2000/svg" width="45" height="45" viewBox="0 0 45 45">
  <g id="Group_451" data-name="Group 451" transform="translate(0 -0.001)">
    <rect id="Rectangle_702" data-name="Rectangle 702" width="45" height="45" rx="10" transform="translate(0 0.001)" fill="#e5e5e5"/>
    <g id="email" transform="translate(15 15.001)">
      <g id="Group_385" data-name="Group 385" transform="translate(0 0)">
        <g id="Group_384" data-name="Group 384">
          <path id="Path_751" data-name="Path 751" d="M15,5.739a.236.236,0,0,0-.01-.051.25.25,0,0,0-.014-.043.224.224,0,0,0-.025-.038.236.236,0,0,0-.033-.039s-.006-.008-.01-.012L12.5,3.689V1.754a.75.75,0,0,0-.75-.75H9.041L7.957.161a.741.741,0,0,0-.912,0L5.96,1H3.25a.75.75,0,0,0-.75.75V3.689L.1,5.556s-.006.008-.01.012a.235.235,0,0,0-.033.039.223.223,0,0,0-.025.038.247.247,0,0,0-.014.043.237.237,0,0,0-.01.05c0,.005,0,.01,0,.015v8.5a.742.742,0,0,0,.147.441s0,.005,0,.007l.008.007A.746.746,0,0,0,.75,15h13.5a.747.747,0,0,0,.593-.3s.005,0,.007-.006,0,0,0-.007A.742.742,0,0,0,15,14.254v-8.5C15,5.749,15,5.744,15,5.739ZM7.351.556a.24.24,0,0,1,.3,0L8.226,1H6.776ZM.813,14.5,7.351,9.426a.24.24,0,0,1,.3,0L14.188,14.5Zm13.688-.39L7.957,9.032a.742.742,0,0,0-.912,0L.5,14.114V6.135L4.6,9.316a.25.25,0,0,0,.307-.4L.742,5.689,2.5,4.322V6.254a.25.25,0,0,0,.5,0v-4.5a.25.25,0,0,1,.25-.25h8.5a.25.25,0,0,1,.25.25v4.5a.25.25,0,1,0,.5,0V4.322L14.26,5.689,10.09,8.926a.25.25,0,1,0,.307.4l4.1-3.187v7.98Z" transform="translate(-0.001 -0.004)" fill="#22216d"/>
          <path id="Path_751_-_Outline" data-name="Path 751 - Outline" d="M7.5-.246a1,1,0,0,1,.61.21L9.127.754h2.624a1,1,0,0,1,1,1V3.567l2.313,1.8A.269.269,0,0,1,15.1,5.4a.487.487,0,0,1,.048.058.475.475,0,0,1,.047.073l.007.015a.5.5,0,0,1,.026.076.487.487,0,0,1,.016.075.267.267,0,0,1,.006.056v8.5a1,1,0,0,1-.184.574l-.012.019-.027.038-.011.007a1,1,0,0,1-.765.362H.75a1,1,0,0,1-.774-.373l-.012-.013a.272.272,0,0,1-.029-.041,1,1,0,0,1-.184-.573v-8.5A.27.27,0,0,1-.243,5.7a.488.488,0,0,1,.016-.074A.5.5,0,0,1-.2,5.545l.007-.014a.474.474,0,0,1,.047-.073A.486.486,0,0,1-.1,5.4a.269.269,0,0,1,.036-.036l.006,0L2.25,3.567V1.754a1,1,0,0,1,1-1H5.874l1.017-.79A1,1,0,0,1,7.5-.246Zm4.75,4.057V1.754a.5.5,0,0,0-.5-.5h-2.8L7.8.359A.491.491,0,0,0,7.651.278.49.49,0,0,1,7.8.36l1.151.894H6.048L6.733.72l-.688.534H3.25a.5.5,0,0,0-.5.5V3.811h0V1.754a.5.5,0,0,1,.5-.5h8.5a.5.5,0,0,1,.5.5Zm0,2.943a.5.5,0,0,1-.5-.5v-4.5H3.25v4.5a.5.5,0,1,1-1,0V4.833l-1.1.856L5.057,8.723a.5.5,0,0,1-.613.79L.75,6.645V13.6l6.141-4.77a.992.992,0,0,1,1.219,0L14.251,13.6V6.645l-3.7,2.874a.509.509,0,0,1-.5.07.5.5,0,0,1-.115-.862l3.913-3.038-1.1-.856V6.254A.5.5,0,0,1,12.251,6.754Zm2.417-1.065L12.643,4.116l2.025,1.573L10.244,9.124Zm-2.417.565h0v0Zm-7.5,2.865L.334,5.689l1.418-1.1L.334,5.689Zm10-3.34h0v8.481s0,0,0-.005ZM12.532,12.9,7.8,9.229a.492.492,0,0,0-.148-.08A.491.491,0,0,1,7.8,9.23Zm.927,1.353L7.5,9.627,1.543,14.254Zm.793.5h0Z" transform="translate(-0.001 -0.004)" fill="#22216d"/>
          <path id="Path_752" data-name="Path 752" d="M160.293,72.717V71.6a3.36,3.36,0,1,0-3.36,3.36.28.28,0,0,0,0-.56,2.8,2.8,0,1,1,2.8-2.8v1.12a.56.56,0,1,1-1.12,0V71.6a.28.28,0,1,0-.56,0,1.12,1.12,0,1,1-1.12-1.12.28.28,0,0,0,0-.56,1.68,1.68,0,1,0,1.132,2.918,1.117,1.117,0,0,0,2.228-.118Z" transform="translate(-149.434 -65.998)" fill="#22216d"/>
          <path id="Path_752_-_Outline" data-name="Path 752 - Outline" d="M156.934,75.206a3.61,3.61,0,1,1,3.61-3.61v1.12a1.367,1.367,0,0,1-2.626.538,1.93,1.93,0,1,1-.988-3.588.53.53,0,1,1,0,1.06.87.87,0,1,0,.87.87.53.53,0,1,1,1.06,0v1.12a.31.31,0,1,0,.62,0V71.6a2.55,2.55,0,1,0-2.55,2.55.53.53,0,0,1,0,1.06Zm0-6.719a3.11,3.11,0,1,0,0,6.219.03.03,0,0,0,0-.06,3.05,3.05,0,1,1,3.05-3.05v1.12a.81.81,0,1,1-1.62,0V71.6a.03.03,0,1,0-.06,0,1.37,1.37,0,1,1-1.37-1.37.03.03,0,0,0,0-.06,1.43,1.43,0,1,0,.963,2.483l.367-.337.051.5a.867.867,0,0,0,1.729-.092V71.6A3.113,3.113,0,0,0,156.934,68.487Z" transform="translate(-149.434 -65.998)" fill="#22216d"/>
        </g>
      </g>
    </g>
  </g>
</svg>
