<svg id="help" xmlns="http://www.w3.org/2000/svg" width="16.74" height="16.74" viewBox="0 0 16.74 16.74">
  <path id="Path_252" data-name="Path 252" d="M16.74,11.329a5.424,5.424,0,0,0-3.963-5.214A6.392,6.392,0,1,0,.886,9.641L.024,12.761l3.12-.863a6.368,6.368,0,0,0,2.972.88,5.413,5.413,0,0,0,7.968,3.211l2.634.729-.729-2.634a5.392,5.392,0,0,0,.752-2.753ZM3.3,10.837l-1.868.517.517-1.868L1.829,9.3a5.409,5.409,0,1,1,1.653,1.653ZM15.31,15.31l-1.386-.383-.185.12a4.432,4.432,0,0,1-6.61-2.306,6.4,6.4,0,0,0,5.613-5.613,4.432,4.432,0,0,1,2.306,6.61l-.12.185Zm0,0" fill="#0049a0"/>
</svg>
