<svg xmlns="http://www.w3.org/2000/svg" width="18.089" height="12.059" viewBox="0 0 18.089 12.059">
  <path id="Icon_awesome-eye" data-name="Icon awesome-eye" d="M17.98,10.071A10.073,10.073,0,0,0,9.044,4.5,10.074,10.074,0,0,0,.109,10.071a1.016,1.016,0,0,0,0,.917,10.073,10.073,0,0,0,8.935,5.571,10.074,10.074,0,0,0,8.935-5.571A1.016,1.016,0,0,0,17.98,10.071ZM9.044,15.052a4.522,4.522,0,1,1,4.522-4.522A4.522,4.522,0,0,1,9.044,15.052Zm0-7.537a2.993,2.993,0,0,0-.795.119,1.5,1.5,0,0,1-2.1,2.1,3.008,3.008,0,1,0,2.9-2.22Z" transform="translate(0 -4.5)" fill="#2f2e96"/>
</svg>
