<svg xmlns="http://www.w3.org/2000/svg" width="17.51" height="17.506" viewBox="0 0 17.51 17.506">
  <path id="Icon_awesome-instagram" data-name="Icon awesome-instagram" d="M8.754,5.508A4.488,4.488,0,1,0,13.242,10,4.481,4.481,0,0,0,8.754,5.508Zm0,7.406A2.918,2.918,0,1,1,11.672,10,2.923,2.923,0,0,1,8.754,12.914Zm5.719-7.59a1.047,1.047,0,1,1-1.047-1.047A1.044,1.044,0,0,1,14.473,5.324Zm2.973,1.063a5.181,5.181,0,0,0-1.414-3.668A5.215,5.215,0,0,0,12.363,1.3c-1.445-.082-5.777-.082-7.223,0a5.207,5.207,0,0,0-3.668,1.41A5.2,5.2,0,0,0,.059,6.383c-.082,1.445-.082,5.777,0,7.223a5.181,5.181,0,0,0,1.414,3.668,5.221,5.221,0,0,0,3.668,1.414c1.445.082,5.777.082,7.223,0a5.181,5.181,0,0,0,3.668-1.414,5.215,5.215,0,0,0,1.414-3.668C17.527,12.16,17.527,7.832,17.445,6.387Zm-1.867,8.77a2.954,2.954,0,0,1-1.664,1.664c-1.152.457-3.887.352-5.16.352s-4.012.1-5.16-.352A2.954,2.954,0,0,1,1.93,15.156C1.473,14,1.578,11.27,1.578,10s-.1-4.012.352-5.16A2.954,2.954,0,0,1,3.594,3.172c1.152-.457,3.887-.352,5.16-.352s4.012-.1,5.16.352a2.954,2.954,0,0,1,1.664,1.664c.457,1.152.352,3.887.352,5.16S16.035,14.008,15.578,15.156Z" transform="translate(0.003 -1.243)" fill="#fff"/>
</svg>
