<svg xmlns="http://www.w3.org/2000/svg" width="17.5" height="17.5" viewBox="0 0 17.5 17.5">
  <path id="Icon_awesome-whatsapp" data-name="Icon awesome-whatsapp" d="M14.879,3.793A8.675,8.675,0,0,0,1.23,14.258L0,18.75l4.6-1.207A8.645,8.645,0,0,0,8.742,18.6h0A8.755,8.755,0,0,0,17.5,9.926,8.706,8.706,0,0,0,14.879,3.793ZM8.746,17.137a7.2,7.2,0,0,1-3.672-1l-.262-.156-2.727.715.727-2.66-.172-.273A7.222,7.222,0,1,1,16.035,9.926,7.288,7.288,0,0,1,8.746,17.137Zm3.953-5.4c-.215-.109-1.281-.633-1.48-.7s-.344-.109-.488.109-.559.7-.687.852-.254.164-.469.055A5.9,5.9,0,0,1,6.625,9.473c-.223-.383.223-.355.637-1.184a.4.4,0,0,0-.02-.379C7.188,7.8,6.754,6.734,6.574,6.3s-.355-.363-.488-.371-.27-.008-.414-.008a.8.8,0,0,0-.578.27A2.435,2.435,0,0,0,4.336,8a4.245,4.245,0,0,0,.883,2.242,9.683,9.683,0,0,0,3.7,3.273,4.24,4.24,0,0,0,2.6.543,2.219,2.219,0,0,0,1.461-1.031A1.812,1.812,0,0,0,13.109,12C13.059,11.9,12.914,11.844,12.7,11.738Z" transform="translate(0 -1.25)" fill="#fff"/>
</svg>
