<svg xmlns="http://www.w3.org/2000/svg" width="20" height="18.68" viewBox="0 0 20 18.68">
  <g id="Icon_simple-snapchat" data-name="Icon simple-snapchat" transform="translate(0 -0.66)" fill="none">
    <path d="M10.172.661a5.325,5.325,0,0,1,4.942,3.184,10.013,10.013,0,0,1,.249,4.039l0,.05c-.01.15-.018.288-.025.425a.647.647,0,0,0,.334.075,2.341,2.341,0,0,0,.861-.251.83.83,0,0,1,.387-.087,1.14,1.14,0,0,1,.424.075.792.792,0,0,1,.612.7q.019.561-1.011.973c-.074.024-.174.063-.287.1-.375.113-.949.3-1.111.675a.872.872,0,0,0,.1.723l.012.012c.05.113,1.272,2.9,3.993,3.345a.416.416,0,0,1,.35.424.5.5,0,0,1-.038.188c-.2.474-1.061.823-2.622,1.059a2.237,2.237,0,0,0-.137.475,3.354,3.354,0,0,1-.112.461.437.437,0,0,1-.462.337H16.6a2.659,2.659,0,0,1-.448-.062,5.028,5.028,0,0,0-1.061-.112,4.049,4.049,0,0,0-.761.062,3.738,3.738,0,0,0-1.436.737,4.543,4.543,0,0,1-2.745,1.073c-.05,0-.1-.013-.15-.013H9.879a4.434,4.434,0,0,1-2.733-1.073,3.7,3.7,0,0,0-1.423-.737,5.519,5.519,0,0,0-.773-.062,5.233,5.233,0,0,0-1.06.124,2.4,2.4,0,0,1-.45.062.465.465,0,0,1-.486-.35c-.051-.16-.075-.324-.112-.472a2.211,2.211,0,0,0-.138-.475c-1.6-.185-2.458-.535-2.658-1.022A.5.5,0,0,1,0,15.135a.413.413,0,0,1,.35-.424c2.72-.45,3.942-3.233,3.992-3.35l.013-.024a.832.832,0,0,0,.1-.724c-.162-.362-.737-.548-1.11-.674a1.861,1.861,0,0,1-.288-.1c-.923-.363-1.048-.775-1-1.061a.985.985,0,0,1,.973-.661.844.844,0,0,1,.319.062,2.28,2.28,0,0,0,.92.25.788.788,0,0,0,.387-.087l-.038-.474a10,10,0,0,1,.256-4.031A5.24,5.24,0,0,1,9.773.673L10.122.66h.05Z" stroke="none"/>
    <path d="M 10.12603950500488 2.160804748535156 L 9.772503852844238 2.172500610351562 C 9.510573387145996 2.172500610351562 8.823503494262695 2.206829071044922 8.102514266967773 2.524829864501953 C 7.255904197692871 2.898229598999023 6.650703430175781 3.523569107055664 6.252324104309082 4.436559677124023 L 6.246124267578125 4.450570106506348 C 5.95720386505127 5.094670295715332 6.053354263305664 6.68927001953125 6.116983413696289 7.744460105895996 L 6.118043899536133 7.762102127075195 L 6.232963562011719 9.183730125427246 L 5.557536125183105 9.55897045135498 C 5.657707214355469 9.685811996459961 5.746569633483887 9.827736854553223 5.819188117980957 9.986940383911133 C 5.984710693359375 10.34635829925537 6.180320739746094 11.07890605926514 5.690011024475098 12.02386474609375 C 5.513465881347656 12.41131782531738 4.804865837097168 13.82566261291504 3.426242828369141 14.91772079467773 L 3.488523483276367 14.92493057250977 L 3.874053955078125 15.40534019470215 C 4.031855583190918 15.60198211669922 4.121829986572266 15.80800628662109 4.184002876281738 16.00786209106445 C 4.40422534942627 15.97837448120117 4.660897254943848 15.95582962036133 4.950843811035156 15.95582962036133 C 5.253603935241699 15.95582962036133 5.576173782348633 15.98095989227295 5.93696403503418 16.03266906738281 L 5.982744216918945 16.03994941711426 C 6.807483673095703 16.18428039550781 7.411104202270508 16.60755920410156 7.994853973388672 17.01689910888672 L 8.022713661193848 17.03656959533691 C 8.706713676452637 17.52869033813477 9.17298412322998 17.82749938964844 9.87917423248291 17.82749938964844 L 10.00333404541016 17.82749938964844 C 10.08806896209717 17.82749938964844 10.16139316558838 17.8336238861084 10.21341896057129 17.83926200866699 C 10.88676834106445 17.82259941101074 11.34477519989014 17.52474212646484 12.02452373504639 17.0473804473877 L 12.03814315795898 17.03782081604004 C 12.59828758239746 16.64571380615234 13.23276805877686 16.20154190063477 14.06669998168945 16.05401611328125 C 14.48010158538818 15.97726058959961 14.85116863250732 15.96833038330078 15.09500312805176 15.96833038330078 C 15.38632297515869 15.96833038330078 15.64503288269043 15.98736381530762 15.86813163757324 16.01400184631348 C 15.92084789276123 15.84987640380859 15.98600387573242 15.70025825500488 16.08143424987793 15.55307960510254 L 16.44860458374023 14.98682975769043 L 16.6431713104248 14.95743370056152 C 16.24176788330078 14.64888858795166 15.86383819580078 14.28818511962891 15.51423358917236 13.87817001342773 C 14.89705657958984 13.15432548522949 14.52282619476318 12.45958042144775 14.35731315612793 12.11644554138184 L 14.31673431396484 12.03932952880859 C 13.96556377410889 11.3719596862793 13.90717315673828 10.6684103012085 14.15231323242188 10.0582799911499 L 14.16671371459961 10.02369022369385 C 14.2398567199707 9.854022026062012 14.33133602142334 9.703118324279785 14.43535995483398 9.568668365478516 L 13.7933235168457 9.183449745178223 L 13.83676338195801 8.286600112915039 C 13.84309768676758 8.155784606933594 13.85128974914551 8.015779495239258 13.86249160766602 7.846904754638672 L 13.865553855896 7.78855037689209 C 13.92939376831055 6.789130210876465 14.0362434387207 5.116399765014648 13.74368381500244 4.456609725952148 C 13.33613395690918 3.543930053710938 12.69959449768066 2.891519546508789 11.8517541885376 2.517490386962891 C 11.12206363677979 2.195579528808594 10.43373394012451 2.160829544067383 10.17166423797607 2.160829544067383 L 10.12603950500488 2.160804748535156 M 10.12166404724121 0.6599998474121094 L 10.17166423797607 0.6608295440673828 C 10.99666404724121 0.6608295440673828 13.79416370391846 0.8908290863037109 15.1133337020874 3.844999313354492 C 15.55416393280029 4.839170455932617 15.44916343688965 6.527500152587891 15.36250400543213 7.884169578552246 L 15.36000442504883 7.934169769287109 C 15.35000419616699 8.084170341491699 15.3416633605957 8.221670150756836 15.33500385284424 8.359169960021973 C 15.39750385284424 8.396670341491699 15.50416374206543 8.434169769287109 15.66916370391846 8.434169769287109 C 15.91916370391846 8.420829772949219 16.21833419799805 8.334170341491699 16.53000450134277 8.183329582214355 C 16.66750335693359 8.109999656677246 16.81666374206543 8.096670150756836 16.91666412353516 8.096670150756836 C 17.06833457946777 8.096670150756836 17.21583366394043 8.120829582214355 17.34083366394043 8.171669960021973 C 17.71583366394043 8.295829772949219 17.9525032043457 8.570830345153809 17.9525032043457 8.869999885559082 C 17.96500396728516 9.244170188903809 17.62750434875488 9.569169998168945 16.94167327880859 9.843330383300781 C 16.86750411987305 9.867500305175781 16.76750373840332 9.905830383300781 16.65500450134277 9.942500114440918 C 16.28000450134277 10.05500030517578 15.70583343505859 10.24250030517578 15.54417419433594 10.61750030517578 C 15.46917343139648 10.80416965484619 15.49333381652832 11.05416965484619 15.64417362213135 11.34082984924316 L 15.65667343139648 11.3533296585083 C 15.70667362213135 11.46667003631592 16.9283332824707 14.24917030334473 19.64917373657227 14.69832992553711 C 19.86167335510254 14.73500061035156 20.01167297363281 14.92333030700684 19.99917411804199 15.12249946594238 C 19.99917411804199 15.18499946594238 19.98667335510254 15.24666976928711 19.96167373657227 15.30999946594238 C 19.76167297363281 15.78417015075684 18.90083312988281 16.13332939147949 17.34000396728516 16.36916923522949 C 17.29083442687988 16.44499969482422 17.24000358581543 16.68166923522949 17.20333480834961 16.84416961669922 C 17.17917442321777 16.99333000183105 17.14167404174805 17.1441707611084 17.0916748046875 17.30500030517578 C 17.02833366394043 17.53083038330078 16.86667442321777 17.64249992370605 16.62917327880859 17.64249992370605 L 16.60417366027832 17.64249992370605 C 16.49167442321777 17.64249992370605 16.34333419799805 17.61667060852051 16.15583419799805 17.58082962036133 C 15.85583400726318 17.51832962036133 15.51833343505859 17.46833038330078 15.09500312805176 17.46833038330078 C 14.84500312805176 17.46833038330078 14.59583377838135 17.4808292388916 14.33417320251465 17.53000068664551 C 13.83417320251465 17.61667060852051 13.39833450317383 17.91666984558105 12.89833450317383 18.26667022705078 C 12.18750381469727 18.76583099365234 11.37667369842529 19.34000015258789 10.15333366394043 19.34000015258789 C 10.10333347320557 19.34000015258789 10.05417346954346 19.32749938964844 10.00333404541016 19.32749938964844 L 9.87917423248291 19.32749938964844 C 8.655843734741211 19.32749938964844 7.856674194335938 18.76499938964844 7.146674156188965 18.25416946411133 C 6.647503852844238 17.90415954589844 6.224173545837402 17.60499954223633 5.724173545837402 17.51749992370605 C 5.462503433227539 17.47999954223633 5.200003623962402 17.45582962036133 4.950843811035156 17.45582962036133 C 4.50084400177002 17.45582962036133 4.152503967285156 17.53000068664551 3.890832901000977 17.57999992370605 C 3.715003967285156 17.61582946777344 3.565004348754883 17.64166069030762 3.44084358215332 17.64166069030762 C 3.129173278808594 17.64166069030762 3.005002975463867 17.45499992370605 2.95500373840332 17.29166030883789 C 2.904172897338867 17.13166046142578 2.880002975463867 16.96750068664551 2.842504501342773 16.81916046142578 C 2.804174423217773 16.6683292388916 2.755002975463867 16.40749931335449 2.704174041748047 16.34416007995605 C 1.105833053588867 16.15916061401367 0.2458343505859375 15.80916023254395 0.04667472839355469 15.32250022888184 C 0.020843505859375 15.27000045776367 0.003343582153320312 15.19750022888184 0.000843048095703125 15.13500022888184 C -0.01166534423828125 14.93249988555908 0.1383342742919922 14.74749946594238 0.3508434295654297 14.71083068847656 C 3.070833206176758 14.26082992553711 4.292503356933594 11.4783296585083 4.343334197998047 11.36083030700684 L 4.356674194335938 11.33666038513184 C 4.506673812866211 11.04916000366211 4.543334007263184 10.79916000366211 4.455843925476074 10.61250019073486 C 4.293334007263184 10.25082969665527 3.719173431396484 10.06416034698486 3.345834732055664 9.938329696655273 C 3.245004653930664 9.914159774780273 3.145843505859375 9.876660346984863 3.057504653930664 9.839159965515137 C 2.135004043579102 9.476659774780273 2.010004043579102 9.064160346984863 2.060003280639648 8.778329849243164 C 2.135004043579102 8.379159927368164 2.621673583984375 8.117500305175781 3.033334732055664 8.117500305175781 C 3.155004501342773 8.117500305175781 3.258333206176758 8.141659736633301 3.352504730224609 8.179160118103027 C 3.702503204345703 8.340829849243164 4.010004043579102 8.429160118103027 4.272503852844238 8.429160118103027 C 4.467503547668457 8.429160118103027 4.592503547668457 8.379159927368164 4.660003662109375 8.341659545898438 L 4.621673583984375 7.867500305175781 C 4.540003776550293 6.512499809265137 4.434173583984375 4.824999809265137 4.877503395080566 3.836660385131836 C 6.160003662109375 0.8974990844726562 8.949163436889648 0.6725006103515625 9.772503852844238 0.6725006103515625 L 10.12166404724121 0.6599998474121094 Z" stroke="none" fill="#fff"/>
  </g>
</svg>
