<svg xmlns="http://www.w3.org/2000/svg" width="11.057" height="11.076" viewBox="0 0 11.057 11.076">
  <path id="Icon_feather-phone-call" data-name="Icon feather-phone-call" d="M9.364,3.416a2.4,2.4,0,0,1,1.892,1.892M9.364,1.5a4.31,4.31,0,0,1,3.807,3.8m-.479,3.822v1.437a.958.958,0,0,1-1.044.958,9.478,9.478,0,0,1-4.133-1.47A9.339,9.339,0,0,1,4.642,7.175a9.478,9.478,0,0,1-1.47-4.152.958.958,0,0,1,.953-1.044H5.561a.958.958,0,0,1,.958.824,6.149,6.149,0,0,0,.335,1.346.958.958,0,0,1-.216,1.01l-.608.608A7.663,7.663,0,0,0,8.9,8.64l.608-.608a.958.958,0,0,1,1.01-.216,6.149,6.149,0,0,0,1.346.335A.958.958,0,0,1,12.692,9.124Z" transform="translate(-2.667 -0.948)" fill="none" stroke="#fff" stroke-linecap="round" stroke-linejoin="round" stroke-width="1"/>
</svg>
