<svg xmlns="http://www.w3.org/2000/svg" width="13.37" height="13.375" viewBox="0 0 13.37 13.375">
  <g id="instagram" transform="translate(0 0.001)">
    <path id="Path_10" data-name="Path 10" d="M6.689,1.2c1.787,0,2,.008,2.7.039a3.666,3.666,0,0,1,1.241.23,2.07,2.07,0,0,1,.768.5,2.1,2.1,0,0,1,.5.768,3.68,3.68,0,0,1,.23,1.241c.031.706.039.917.039,2.7s-.008,2-.039,2.7a3.666,3.666,0,0,1-.23,1.241,2.065,2.065,0,0,1-.5.768,2.1,2.1,0,0,1-.768.5,3.683,3.683,0,0,1-1.241.23c-.706.031-.917.039-2.7.039s-2-.008-2.7-.039a3.666,3.666,0,0,1-1.241-.23,2.07,2.07,0,0,1-.768-.5,2.1,2.1,0,0,1-.5-.768,3.683,3.683,0,0,1-.23-1.241c-.031-.706-.039-.917-.039-2.7s.008-2,.039-2.7a3.666,3.666,0,0,1,.23-1.241,2.075,2.075,0,0,1,.5-.768,2.1,2.1,0,0,1,.768-.5,3.681,3.681,0,0,1,1.241-.23c.7-.031.915-.039,2.7-.039Zm0-1.2C4.873,0,4.646.007,3.932.039A4.883,4.883,0,0,0,2.31.35a3.259,3.259,0,0,0-1.186.773A3.275,3.275,0,0,0,.35,2.307,4.9,4.9,0,0,0,.039,3.929C.008,4.645,0,4.872,0,6.688S.008,8.731.039,9.445A4.883,4.883,0,0,0,.35,11.067a3.264,3.264,0,0,0,.773,1.186,3.269,3.269,0,0,0,1.183.771,4.9,4.9,0,0,0,1.622.311c.713.031.941.039,2.757.039s2.043-.008,2.757-.039a4.883,4.883,0,0,0,1.622-.311A3.419,3.419,0,0,0,13.02,11.07a4.9,4.9,0,0,0,.311-1.622c.031-.713.039-.941.039-2.757s-.008-2.043-.039-2.757a4.883,4.883,0,0,0-.311-1.622,3.138,3.138,0,0,0-.765-1.189A3.269,3.269,0,0,0,11.071.352,4.9,4.9,0,0,0,9.448.041C8.733.007,8.505,0,6.689,0h0Z" fill="#fff"/>
    <path id="Path_11" data-name="Path 11" d="M11.217,7.781a3.436,3.436,0,1,0,3.436,3.436A3.437,3.437,0,0,0,11.217,7.781Zm0,5.665a2.229,2.229,0,1,1,2.229-2.229A2.229,2.229,0,0,1,11.217,13.446Z" transform="translate(-4.528 -4.529)" fill="#fff"/>
    <path id="Path_12" data-name="Path 12" d="M24.228,6.339a.8.8,0,1,1-.8-.8A.8.8,0,0,1,24.228,6.339Z" transform="translate(-13.166 -3.223)" fill="#fff"/>
  </g>
</svg>
