<svg id="login" xmlns="http://www.w3.org/2000/svg" width="15" height="15" viewBox="0 0 15 15">
  <g id="Group_387" data-name="Group 387" transform="translate(0)">
    <g id="Group_386" data-name="Group 386">
      <path id="Path_753" data-name="Path 753" d="M3.849,13.828H1.777a.6.6,0,0,1-.468-.223.613.613,0,0,1-.124-.513A6.469,6.469,0,0,1,7.344,7.966c.05,0,.1,0,.149,0s.1,0,.15,0a6.406,6.406,0,0,1,2.114.408.586.586,0,0,0,.412-1.1q-.145-.055-.293-.1a3.981,3.981,0,1,0-4.765,0A7.616,7.616,0,0,0,.038,12.853,1.78,1.78,0,0,0,1.777,15H3.849a.586.586,0,0,0,0-1.172Zm.834-9.844A2.81,2.81,0,1,1,7.63,6.794l-.137,0H7.356A2.815,2.815,0,0,1,4.683,3.984Z" transform="translate(0)" fill="#22216d"/>
      <path id="Path_754" data-name="Path 754" d="M156.306,313.929a1.584,1.584,0,0,0-1.445-.929h-1.837a1.556,1.556,0,0,0-1.47.994c-.031.08-.069.182-.108.3H147.6a.588.588,0,0,0-.422.178l-1.01,1.04a.588.588,0,0,0,0,.821l1.029,1.047a.588.588,0,0,0,.419.176h1.91a.588.588,0,0,0,0-1.176h-1.664l-.453-.461.437-.45h4.041a.588.588,0,0,0,.571-.448,4.858,4.858,0,0,1,.193-.605.385.385,0,0,1,.374-.24h1.834a.4.4,0,0,1,.373.233,3.8,3.8,0,0,1,.348,1.5,3.908,3.908,0,0,1-.345,1.525.4.4,0,0,1-.369.241H153.01a.418.418,0,0,1-.379-.26,3.907,3.907,0,0,1-.182-.582.588.588,0,1,0-1.143.274,5.059,5.059,0,0,0,.239.756,1.586,1.586,0,0,0,1.464.988h1.859a1.576,1.576,0,0,0,1.445-.946,5.088,5.088,0,0,0,.443-2A4.976,4.976,0,0,0,156.306,313.929Z" transform="translate(-141.756 -303.848)" fill="#22216d"/>
      <circle id="Ellipse_195" data-name="Ellipse 195" cx="0.588" cy="0.588" r="0.588" transform="translate(12.032 11.481)" fill="#22216d"/>
    </g>
  </g>
</svg>
