<svg xmlns="http://www.w3.org/2000/svg" xmlns:xlink="http://www.w3.org/1999/xlink" width="15" height="15" viewBox="0 0 15 15">
  <defs>
    <clipPath id="clip-path">
      <rect id="Rectangle_79" data-name="Rectangle 79" width="15" height="15" transform="translate(-0.449 -0.494)" fill="#2f2e96" stroke="#707070" stroke-width="1"/>
    </clipPath>
  </defs>
  <g id="Mask_Group_1" data-name="Mask Group 1" transform="translate(0.449 0.494)" clip-path="url(#clip-path)">
    <g id="books-stack-of-three" transform="translate(0.573 1.711)">
      <g id="Group_173" data-name="Group 173">
        <path id="Path_247" data-name="Path 247" d="M13.2,40.03c-.057-.422-.066-1.148.336-1.392a.149.149,0,0,0,.019-.016c.328-.1.555-.246.377-.44L9.092,36.758,1.254,37.822s-.9.125-.817,1.486a1.737,1.737,0,0,0,.49,1.284l-.643.189c-.179.193.049.337.377.44a.128.128,0,0,0,.019.017c.4.244.393.971.336,1.392-1.441.4-.924.53-.924.53l.316.075A1.476,1.476,0,0,0,0,44.507c.08,1.361.817,1.455.817,1.455l5.129,1.627,7.742-1.83s.517-.13-.924-.53c-.058-.421-.066-1.148.336-1.392a.117.117,0,0,0,.019-.016c.328-.1.555-.246.377-.44l-.337-.1c.224-.132.562-.477.614-1.374a1.565,1.565,0,0,0-.319-1.191l.665-.157S14.642,40.429,13.2,40.03Zm-6.476-.017,1.3-.261,4.4-.883.656-.132a2.167,2.167,0,0,0-.166,1.215c.008.074.016.142.025.194l-.717.174L6.67,41.669ZM1.133,41.337l.655.132,4.225.848.369.074h0l1.107.222.055,1.657L1.837,42.883l-.563-.136c.008-.052.017-.12.025-.194A2.167,2.167,0,0,0,1.133,41.337ZM.878,39.242a1.055,1.055,0,0,1,.192-.757.353.353,0,0,1,.254-.1.442.442,0,0,1,.064,0l3.377,1.075L6.45,40,6.4,41.667,1.668,40.373l-.249-.068a.155.155,0,0,0-.031,0C1.368,40.3.9,40.257.878,39.242Zm5.085,7.624L.987,45.5a.151.151,0,0,0-.031,0c-.02,0-.487-.043-.51-1.058a1.057,1.057,0,0,1,.192-.757.354.354,0,0,1,.254-.1.46.46,0,0,1,.064,0h0L6.018,45.2Zm6.521-1.715c.008.075.017.143.025.194L6.239,46.868l.055-1.657,1.341-.269.2.047.742-.235,3.421-.686.656-.132A2.165,2.165,0,0,0,12.484,45.152ZM12.83,42.9a.123.123,0,0,0-.034.005l-.473.129-4.5,1.232L7.765,42.6l1.477-.47,3.578-1.139a.379.379,0,0,1,.326.1,1.057,1.057,0,0,1,.192.757C13.314,42.857,12.847,42.9,12.83,42.9Z" transform="translate(0.001 -36.758)" fill="#2f2e96"/>
      </g>
    </g>
  </g>
</svg>
