<svg xmlns="http://www.w3.org/2000/svg" width="13.571" height="14.615" viewBox="0 0 13.571 14.615">
  <path id="Path_248" data-name="Path 248" d="M-10.563-7.858v-2.349h2.349v2.349Zm2.871,0v-2.349h2.61v2.349Zm-2.871-2.871v-2.61h2.349v2.61Zm2.871,0v-2.61h2.61v2.61Zm-2.871-3.132v-2.349h2.349v2.349Zm6,6v-2.349h2.61v2.349Zm-3.132-6v-2.349h2.61v2.349Zm6.264,6v-2.349H.92v2.349Zm-3.132-2.871v-2.61h2.61v2.61Zm-2.871-7.046a.268.268,0,0,1-.261.261h-.522a.268.268,0,0,1-.261-.261v-2.349a.268.268,0,0,1,.261-.261h.522a.268.268,0,0,1,.261.261Zm6,7.046v-2.61H.92v2.61ZM-4.561-13.86v-2.349h2.61v2.349Zm3.132,0v-2.349H.92v2.349Zm.261-3.915a.268.268,0,0,1-.261.261h-.522a.268.268,0,0,1-.261-.261v-2.349a.268.268,0,0,1,.261-.261h.522a.268.268,0,0,1,.261.261ZM1.964-18.3A1.051,1.051,0,0,0,.92-19.341H-.124v-.783a1.309,1.309,0,0,0-1.3-1.3h-.522a1.309,1.309,0,0,0-1.3,1.3v.783H-6.388v-.783a1.309,1.309,0,0,0-1.3-1.3h-.522a1.309,1.309,0,0,0-1.3,1.3v.783h-1.044A1.051,1.051,0,0,0-11.607-18.3V-7.858a1.051,1.051,0,0,0,1.044,1.044H.92A1.051,1.051,0,0,0,1.964-7.858Z" transform="translate(11.607 21.429)" fill="#2f2e96"/>
</svg>
