<svg xmlns="http://www.w3.org/2000/svg" width="53.574" height="15.45" viewBox="0 0 53.574 15.45">
  <g id="study" transform="translate(0 0)">
    <g id="Group_172" data-name="Group 172" transform="translate(0 0)">
      <path id="Path_246" data-name="Path 246" d="M14.545,8.262V6.826a.453.453,0,0,0-.453-.453,13.655,13.655,0,0,0-2.631.24,4.087,4.087,0,0,0-1.7-.984,3.169,3.169,0,1,0-4.075,0,4.088,4.088,0,0,0-1.7.984,13.657,13.657,0,0,0-2.631-.24.453.453,0,0,0-.453.453V8.262A1.36,1.36,0,0,0,0,9.542v.905a1.36,1.36,0,0,0,.905,1.28v1.436a.453.453,0,0,0,.453.453,10.534,10.534,0,0,1,6.116,1.765.454.454,0,0,0,.5,0,10.533,10.533,0,0,1,6.116-1.765.453.453,0,0,0,.453-.453V11.727a1.36,1.36,0,0,0,.905-1.28V9.542A1.36,1.36,0,0,0,14.545,8.262ZM5.462,3.2A2.263,2.263,0,1,1,7.725,5.468,2.281,2.281,0,0,1,5.462,3.2Zm-4.1,7.7a.453.453,0,0,1-.453-.453V9.542a.453.453,0,1,1,.905,0v.905A.453.453,0,0,1,1.358,10.9Zm5.915,3.292a11.325,11.325,0,0,0-5.462-1.475v-.99a1.36,1.36,0,0,0,.905-1.28V9.542a1.36,1.36,0,0,0-.905-1.28V7.285a10.231,10.231,0,0,1,5.462,1.6ZM7.725,8.1A10.757,10.757,0,0,0,5.092,6.887,3.175,3.175,0,0,1,6.82,6.373H8.63a3.175,3.175,0,0,1,1.728.514A10.757,10.757,0,0,0,7.725,8.1Zm5.915,4.619a11.326,11.326,0,0,0-5.462,1.475V8.882a10.23,10.23,0,0,1,5.462-1.6v.977a1.36,1.36,0,0,0-.905,1.28v.905a1.36,1.36,0,0,0,.905,1.28Zm.905-2.27a.453.453,0,1,1-.905,0V9.542a.453.453,0,1,1,.905,0Z" transform="translate(0 -0.006)" fill="#2f2e96"/>
      <text id="_30" data-name="30" transform="translate(48.574 10.462)" fill="#2f2e96" font-size="8" font-family="SegoeUI, Segoe UI"><tspan x="-4" y="0">30</tspan></text>
      <text id="طالب" transform="translate(31.651 10.418)" fill="#2f2e96" font-size="8" font-family="DroidArabicKufi, Droid Arabic Kufi"><tspan x="-8" y="0">طالب</tspan></text>
    </g>
  </g>
</svg>
