<svg xmlns="http://www.w3.org/2000/svg" width="16.096" height="13.076" viewBox="0 0 16.096 13.076">
  <path id="twitter" d="M16.09,5.546a6.508,6.508,0,0,1-1.9.518,3.32,3.32,0,0,0,1.452-1.826,6.643,6.643,0,0,1-2.1.8A3.305,3.305,0,0,0,7.923,8.052,9.372,9.372,0,0,1,1.118,4.6,3.307,3.307,0,0,0,2.14,9.008,3.3,3.3,0,0,1,.644,8.6v.041a3.3,3.3,0,0,0,2.65,3.237,3.306,3.306,0,0,1-.871.116,3.392,3.392,0,0,1-.622-.06,3.313,3.313,0,0,0,3.083,2.295,6.623,6.623,0,0,1-4.1,1.415,6.518,6.518,0,0,1-.789-.047,9.338,9.338,0,0,0,5.064,1.484,9.332,9.332,0,0,0,9.395-9.395c0-.144,0-.286-.01-.427A6.646,6.646,0,0,0,16.09,5.547Z" transform="translate(0.006 -4)" fill="#fff"/>
</svg>
