<svg id="email" xmlns="http://www.w3.org/2000/svg" width="22.265" height="22.264" viewBox="0 0 22.265 22.264">
  <g id="Group_354" data-name="Group 354">
    <g id="Group_353" data-name="Group 353" transform="translate(0)">
      <path id="Path_663" data-name="Path 663" d="M22.266,8.549c0-.008,0-.014,0-.022a.354.354,0,0,0-.015-.076.384.384,0,0,0-.021-.064.358.358,0,0,0-.037-.056.364.364,0,0,0-.05-.059c-.006-.005-.009-.012-.015-.017L18.555,5.484V2.611A1.113,1.113,0,0,0,17.442,1.5H13.421L11.81.247a1.1,1.1,0,0,0-1.353,0L8.846,1.5H4.825A1.113,1.113,0,0,0,3.712,2.611V5.484L.144,8.255c-.006,0-.009.012-.015.017a.364.364,0,0,0-.05.059.355.355,0,0,0-.037.056.366.366,0,0,0-.021.064.352.352,0,0,0-.015.074c0,.007,0,.014,0,.022V21.166a1.1,1.1,0,0,0,.062.351.368.368,0,0,0,.408.557,1.105,1.105,0,0,0,.643.206H21.153a1.106,1.106,0,0,0,.645-.209.366.366,0,0,0,.407-.554,1.1,1.1,0,0,0,.062-.351V8.549ZM10.911.833a.356.356,0,0,1,.443,0l.856.665H10.057Zm-9.7,20.7L10.911,14a.357.357,0,0,1,.442,0l9.708,7.538Zm20.318-.58L11.81,13.413a1.1,1.1,0,0,0-1.352,0L.743,20.957V9.114l6.081,4.722a.371.371,0,0,0,.455-.587L1.1,8.452,3.712,6.423V9.291a.371.371,0,1,0,.742,0V2.611a.371.371,0,0,1,.371-.371H17.442a.371.371,0,0,1,.371.371v6.68a.371.371,0,1,0,.742,0V6.423l2.611,2.028-6.189,4.806a.371.371,0,1,0,.455.586l6.092-4.73Z" transform="translate(-0.001 -0.015)" fill="#15ac8b"/>
      <path id="Path_664" data-name="Path 664" d="M162.5,94.586h7.422a.371.371,0,1,0,0-.742H162.5a.371.371,0,0,0,0,.742Z" transform="translate(-155.075 -89.764)" fill="#15ac8b"/>
      <path id="Path_665" data-name="Path 665" d="M170.289,145.415a.371.371,0,0,0-.371-.371H162.5a.371.371,0,0,0,0,.742h7.422A.371.371,0,0,0,170.289,145.415Z" transform="translate(-155.075 -138.737)" fill="#15ac8b"/>
      <path id="Path_666" data-name="Path 666" d="M260.074,196.615a.371.371,0,0,0-.371-.371h-3.34a.371.371,0,0,0,0,.742h3.34A.371.371,0,0,0,260.074,196.615Z" transform="translate(-244.86 -187.71)" fill="#15ac8b"/>
    </g>
  </g>
</svg>
