<svg xmlns="http://www.w3.org/2000/svg" width="48.837" height="30.2" viewBox="0 0 48.837 30.2">
  <g id="eye" transform="translate(0 -80.744)">
    <g id="Layer_2_11_" transform="translate(0 80.744)">
      <g id="Group_1" data-name="Group 1" transform="translate(0 0)">
        <path id="Path_6" data-name="Path 6" d="M132.083,132.113a9.732,9.732,0,1,0,9.732,9.732A9.732,9.732,0,0,0,132.083,132.113Zm0,14.336a4.618,4.618,0,0,1-4.618-4.617,4.536,4.536,0,0,1,.827-2.6,2.448,2.448,0,1,1,4.484-1.946,4.608,4.608,0,0,1-.693,9.165Z" transform="translate(-108.231 -126.185)" fill="#81b6b2"/>
        <path id="Path_7" data-name="Path 7" d="M26.3,80.744a25.922,25.922,0,0,0-7.267.862C9.8,83.98,0,93.867,0,96.238s12.524,14.706,22.532,14.706a25.844,25.844,0,0,0,7.267-.864c9.233-2.374,19.038-11.715,19.038-14.632S36.313,80.744,26.3,80.744Zm-2.452,25.393A9.732,9.732,0,1,1,33.585,96.4,9.732,9.732,0,0,1,23.853,106.137Z" transform="translate(0 -80.744)" fill="#f7f1e6"/>
        <path id="Path_8" data-name="Path 8" d="M171.972,176.92a2.448,2.448,0,0,1-4.484,1.946,4.535,4.535,0,0,0-.827,2.6,4.619,4.619,0,1,0,5.312-4.548Z" transform="translate(-147.426 -165.82)" fill="#2b3237"/>
        <path id="Path_9" data-name="Path 9" d="M174.029,167.984a2.456,2.456,0,1,0-2.19-1.357A2.45,2.45,0,0,0,174.029,167.984Z" transform="translate(-151.777 -153.581)" fill="#f7f1e6"/>
      </g>
    </g>
  </g>
</svg>
