<svg xmlns="http://www.w3.org/2000/svg" width="57.066" height="63.792" viewBox="0 0 57.066 63.792">
  <g id="lesson" transform="translate(-26.991)">
    <g id="Group_339" data-name="Group 339" transform="translate(26.991 0)">
      <g id="Group_338" data-name="Group 338" transform="translate(0 0)">
        <path id="Path_658" data-name="Path 658" d="M56.915,30.633a1.246,1.246,0,0,0,.71-.71l1.263-3.246H82.811a1.246,1.246,0,1,0,0-2.492,4.236,4.236,0,0,1,0-8.473,1.246,1.246,0,1,0,0-2.492H59.063l-3.8-3.8L57.021,3.6l5.384,5.384a1.246,1.246,0,1,0,1.762-1.762L57.312.365A1.245,1.245,0,0,0,56.07.053L34.418,6.594a1.246,1.246,0,0,0-.832.832L27.045,29.079A1.246,1.246,0,0,0,28.6,30.632l7.814-2.361,6.867,6.867a1.246,1.246,0,0,0,1.333.28l.016-.006V57.063a6.736,6.736,0,0,0,6.728,6.728H82.811a1.246,1.246,0,0,0,1.246-1.246v-27.1a1.246,1.246,0,0,0-2.492,0V61.3H51.356a4.241,4.241,0,0,1-4.236-4.236V34.443Zm3.653-8.278,0-.007L62.41,17.62a1.246,1.246,0,0,0-.28-1.333l-.575-.575H77.587a6.715,6.715,0,0,0,0,8.473H59.856ZM30.1,27.574,35.778,8.787,52.041,3.874,44.1,11.818a1.246,1.246,0,1,0,1.762,1.762L53.8,5.636,48.89,21.9ZM44.466,32.8l-5.348-5.348L50.249,24.09a1.246,1.246,0,0,0,.832-.832l3.363-11.131,5.348,5.348-.847,2.178-1.276-1.276a1.246,1.246,0,0,0-1.762,1.762l2.052,2.052L55.5,28.509Z" transform="translate(-26.991 0)" fill="#fff"/>
      </g>
    </g>
    <g id="Group_341" data-name="Group 341" transform="translate(81.565 29.361)">
      <g id="Group_340" data-name="Group 340">
        <path id="Path_659" data-name="Path 659" d="M467.134,236.023a1.245,1.245,0,1,0,.365.881A1.255,1.255,0,0,0,467.134,236.023Z" transform="translate(-465.007 -235.658)" fill="#fff"/>
      </g>
    </g>
    <g id="Group_343" data-name="Group 343" transform="translate(54.873 34.519)">
      <g id="Group_342" data-name="Group 342">
        <path id="Path_660" data-name="Path 660" d="M264.431,277.056h-8.38a5.285,5.285,0,0,0-5.279,5.279v8.38a5.285,5.285,0,0,0,5.279,5.279h8.38a5.285,5.285,0,0,0,5.279-5.279v-8.38A5.285,5.285,0,0,0,264.431,277.056Zm2.787,13.659a2.791,2.791,0,0,1-2.787,2.788h-8.38a2.791,2.791,0,0,1-2.788-2.788v-8.38a2.791,2.791,0,0,1,2.788-2.787h8.38a2.79,2.79,0,0,1,2.787,2.787Z" transform="translate(-250.771 -277.056)" fill="#fff"/>
      </g>
    </g>
    <g id="Group_345" data-name="Group 345" transform="translate(61.124 40.115)">
      <g id="Group_344" data-name="Group 344">
        <path id="Path_661" data-name="Path 661" d="M307.29,324.321l-3.157-2.023a2.069,2.069,0,0,0-3.185,1.742v4.047a2.069,2.069,0,0,0,3.185,1.742l3.157-2.023a2.069,2.069,0,0,0,0-3.483Zm-3.85,2.991v-2.5l1.95,1.249Z" transform="translate(-300.948 -321.97)" fill="#fff"/>
      </g>
    </g>
    <g id="Group_347" data-name="Group 347" transform="translate(41.088 14.097)">
      <g id="Group_346" data-name="Group 346">
        <path id="Path_662" data-name="Path 662" d="M142.263,113.509a1.245,1.245,0,1,0,.365.88A1.25,1.25,0,0,0,142.263,113.509Z" transform="translate(-140.136 -113.144)" fill="#fff"/>
      </g>
    </g>
  </g>
</svg>
