<svg id="presentation" xmlns="http://www.w3.org/2000/svg" width="56.465" height="56.465" viewBox="0 0 56.465 56.465">
  <g id="Group_308" data-name="Group 308" transform="translate(4.705 10.352)">
    <g id="Group_307" data-name="Group 307">
      <path id="Path_629" data-name="Path 629" d="M49.83,89.706A5.6,5.6,0,0,0,45.789,88H45.5a5.6,5.6,0,0,0-4.036,1.706A5.176,5.176,0,0,0,40,93.544l.11,2.533a5.409,5.409,0,0,0,5.5,5.1h.072a5.409,5.409,0,0,0,5.5-5.1l.115-2.533A5.176,5.176,0,0,0,49.83,89.706ZM49.3,96a3.533,3.533,0,0,1-3.616,3.294h-.072A3.533,3.533,0,0,1,41.992,96l-.033-.769a8.493,8.493,0,0,0,4.92-1.846,4.2,4.2,0,0,0,2.454,1.721Zm-1.18-4.449a.944.944,0,0,0-1.752-.35c-.012.02-1.18,1.867-4.476,2.149a3.319,3.319,0,0,1,.934-2.339A3.72,3.72,0,0,1,45.5,89.882h.29a3.72,3.72,0,0,1,2.678,1.129,3.316,3.316,0,0,1,.918,2.114A2.226,2.226,0,0,1,48.115,91.551Z" transform="translate(-39.997 -88)" fill="#22216d"/>
    </g>
  </g>
  <g id="Group_310" data-name="Group 310" transform="translate(41.407 32.938)">
    <g id="Group_309" data-name="Group 309">
      <path id="Path_630" data-name="Path 630" d="M361.83,281.706A5.6,5.6,0,0,0,357.789,280h-.29a5.6,5.6,0,0,0-4.036,1.706A5.176,5.176,0,0,0,352,285.544l.11,2.533a5.409,5.409,0,0,0,5.5,5.1h.072a5.409,5.409,0,0,0,5.5-5.1l.115-2.533A5.176,5.176,0,0,0,361.83,281.706Zm-.422,3.762L361.3,288a3.533,3.533,0,0,1-3.616,3.294h-.072A3.533,3.533,0,0,1,353.992,288l-.113-2.536a3.321,3.321,0,0,1,.941-2.452,3.72,3.72,0,0,1,2.678-1.129h.29a3.72,3.72,0,0,1,2.678,1.129A3.322,3.322,0,0,1,361.408,285.468Z" transform="translate(-351.997 -280)" fill="#22216d"/>
    </g>
  </g>
  <g id="Group_312" data-name="Group 312" transform="translate(0 12.954)">
    <g id="Group_311" data-name="Group 311">
      <path id="Path_631" data-name="Path 631" d="M29.072,110.849a2.6,2.6,0,0,0-3.622,0L14.944,121.356a.941.941,0,0,1-.666.276H4.705A4.711,4.711,0,0,0,0,126.337v13.175a2.825,2.825,0,0,0,3.764,2.662v1.1a.941.941,0,0,0,.941.941H16a.941.941,0,0,0,.941-.941V128.018a.942.942,0,0,1,.252-.642l11.941-12.843A2.6,2.6,0,0,0,29.072,110.849Zm-1.283,2.367-.01.01L15.81,126.095a2.824,2.824,0,0,0-.753,1.923v14.318H5.647V128.219a.941.941,0,0,0-1.882,0v11.293a.941.941,0,0,1-1.882,0V126.337a2.823,2.823,0,0,1,2.823-2.823h9.572a2.8,2.8,0,0,0,2-.827L26.78,112.18a.743.743,0,0,1,1.022,0A.733.733,0,0,1,27.789,113.217Z" transform="translate(0 -110.117)" fill="#22216d"/>
    </g>
  </g>
  <g id="Group_314" data-name="Group 314" transform="translate(9.411 27.292)">
    <g id="Group_313" data-name="Group 313">
      <path id="Path_632" data-name="Path 632" d="M80.941,232a.941.941,0,0,0-.941.941v11.293a.941.941,0,0,0,1.882,0V232.941A.941.941,0,0,0,80.941,232Z" transform="translate(-80 -232)" fill="#22216d"/>
    </g>
  </g>
  <g id="Group_316" data-name="Group 316" transform="translate(20.704 32.938)">
    <g id="Group_315" data-name="Group 315">
      <path id="Path_633" data-name="Path 633" d="M185.825,281.706A5.6,5.6,0,0,0,181.789,280h-.29a5.6,5.6,0,0,0-4.036,1.706A5.176,5.176,0,0,0,176,285.544l.11,2.533a5.409,5.409,0,0,0,5.5,5.1h.072a5.409,5.409,0,0,0,5.5-5.1l.11-2.533A5.176,5.176,0,0,0,185.825,281.706Zm-.417,3.762L185.3,288a3.533,3.533,0,0,1-3.616,3.294h-.072A3.533,3.533,0,0,1,177.992,288l-.113-2.536a3.322,3.322,0,0,1,.941-2.452,3.72,3.72,0,0,1,2.678-1.129h.29a3.72,3.72,0,0,1,2.678,1.129A3.322,3.322,0,0,1,185.408,285.468Z" transform="translate(-175.997 -280)" fill="#22216d"/>
    </g>
  </g>
  <g id="Group_318" data-name="Group 318" transform="translate(16.94 47.054)">
    <g id="Group_317" data-name="Group 317">
      <path id="Path_634" data-name="Path 634" d="M158.273,400h-9.725A4.553,4.553,0,0,0,144,404.548v3.922a.941.941,0,1,0,1.882,0v-3.922a2.669,2.669,0,0,1,2.666-2.666h9.725a2.669,2.669,0,0,1,2.666,2.666v3.922a.941.941,0,1,0,1.882,0v-3.922A4.553,4.553,0,0,0,158.273,400Z" transform="translate(-144 -400)" fill="#22216d"/>
    </g>
  </g>
  <g id="Group_320" data-name="Group 320" transform="translate(37.643 47.054)">
    <g id="Group_319" data-name="Group 319">
      <path id="Path_635" data-name="Path 635" d="M334.273,400h-9.725A4.553,4.553,0,0,0,320,404.548v3.922a.941.941,0,1,0,1.882,0v-3.922a2.669,2.669,0,0,1,2.666-2.666h9.725a2.669,2.669,0,0,1,2.666,2.666v3.922a.941.941,0,1,0,1.882,0v-3.922A4.553,4.553,0,0,0,334.273,400Z" transform="translate(-320 -400)" fill="#22216d"/>
    </g>
  </g>
  <g id="Group_322" data-name="Group 322" transform="translate(17.881)">
    <g id="Group_321" data-name="Group 321">
      <path id="Path_636" data-name="Path 636" d="M187.808,0H154.776A2.8,2.8,0,0,0,152,2.823V16.94a.941.941,0,1,0,1.882,0V5.647H188.7V28.233a.919.919,0,0,1-.894.941H155.693a.941.941,0,0,0,0,1.882h32.115a2.8,2.8,0,0,0,2.776-2.823V2.823A2.8,2.8,0,0,0,187.808,0Zm.894,3.764h-34.82V2.823a.919.919,0,0,1,.894-.941h33.032a.919.919,0,0,1,.894.941Z" transform="translate(-151.999)" fill="#22216d"/>
    </g>
  </g>
  <g id="Group_324" data-name="Group 324" transform="translate(50.819 11.999)">
    <g id="Group_323" data-name="Group 323">
      <path id="Path_637" data-name="Path 637" d="M432.941,102a.941.941,0,0,0-.941.941v13.41a.941.941,0,1,0,1.882,0v-13.41A.941.941,0,0,0,432.941,102Z" transform="translate(-432 -102)" fill="#22216d"/>
    </g>
  </g>
  <g id="Group_326" data-name="Group 326" transform="translate(47.054 17.881)">
    <g id="Group_325" data-name="Group 325">
      <path id="Path_638" data-name="Path 638" d="M400.941,152a.941.941,0,0,0-.941.941v7.529a.941.941,0,1,0,1.882,0v-7.529A.941.941,0,0,0,400.941,152Z" transform="translate(-400 -152)" fill="#22216d"/>
    </g>
  </g>
  <g id="Group_328" data-name="Group 328" transform="translate(43.29 15.998)">
    <g id="Group_327" data-name="Group 327">
      <path id="Path_639" data-name="Path 639" d="M368.941,136a.941.941,0,0,0-.941.941v9.411a.941.941,0,0,0,1.882,0v-9.411A.941.941,0,0,0,368.941,136Z" transform="translate(-368 -136)" fill="#22216d"/>
    </g>
  </g>
  <g id="Group_330" data-name="Group 330" transform="translate(39.526 21.645)">
    <g id="Group_329" data-name="Group 329">
      <path id="Path_640" data-name="Path 640" d="M336.941,184a.941.941,0,0,0-.941.941v3.764a.941.941,0,0,0,1.882,0v-3.764A.941.941,0,0,0,336.941,184Z" transform="translate(-336 -184)" fill="#22216d"/>
    </g>
  </g>
  <g id="Group_332" data-name="Group 332" transform="translate(35.761 7.528)">
    <g id="Group_331" data-name="Group 331">
      <path id="Path_641" data-name="Path 641" d="M320.52,64.157a.941.941,0,0,0-1.305.261L316,69.236l-2.968-2.226a.941.941,0,0,0-1.412.332l-3.665,7.33-3.582,2.69a.941.941,0,0,0,1.129,1.506l3.764-2.823a.949.949,0,0,0,.282-.332l3.259-6.52,2.858,2.147a.941.941,0,0,0,1.318-.188l.03-.042,3.764-5.647A.941.941,0,0,0,320.52,64.157Z" transform="translate(-303.999 -63.998)" fill="#22216d"/>
    </g>
  </g>
  <g id="Group_334" data-name="Group 334" transform="translate(21.645 7.529)">
    <g id="Group_333" data-name="Group 333">
      <path id="Path_642" data-name="Path 642" d="M196.234,64H184.941a.941.941,0,1,0,0,1.882h11.293a.941.941,0,0,0,0-1.882Z" transform="translate(-184 -64)" fill="#22216d"/>
    </g>
  </g>
  <g id="Group_336" data-name="Group 336" transform="translate(36.702 7.529)">
    <g id="Group_335" data-name="Group 335">
      <path id="Path_643" data-name="Path 643" d="M314.823,64h-1.882a.941.941,0,1,0,0,1.882h1.882a.941.941,0,1,0,0-1.882Z" transform="translate(-312 -64)" fill="#22216d"/>
    </g>
  </g>
</svg>
