<svg xmlns="http://www.w3.org/2000/svg" width="57.601" height="75.936" viewBox="0 0 57.601 75.936">
  <g id="studying" transform="translate(-13.699 -7.718)">
    <path id="Path_553" data-name="Path 553" d="M175.061,79.182c1.908-3.206,4.914-6.929,1.861-12.588-4.494-19.65,16.218-23.635,19.35-15.525,5.1,1.921,4.96,12.5,2.339,18.035-.116,2.278-2.486,4.264,1.795,10.141l.308-.067h0c-5.552,1.609-19.783.868-25.652,0h0Z" transform="translate(-145.828 -39.398)" fill="#666"/>
    <path id="Path_554" data-name="Path 554" d="M155.841,111.043c1.562,3.281,2.139,4.562,4.079,6.036-.453,8.355-6.869,4.363-11.561,11.938a69.828,69.828,0,0,0-2.791,7.1,33.075,33.075,0,0,0,36.18,0,69.83,69.83,0,0,0-2.791-7.1c-4.692-7.576-11.108-3.584-11.561-11.938,1.94-1.475,2.517-2.755,4.079-6.036.383.2.783.471,1.094.122s1.79-4.888,1.524-5.5-.525-.223-.923.055c.021-.132-.313,1.64-.308,1.371.038-2.143-1.5-4.031-1.979-9.7-4.454,8.238-17.283,4.85-16.736,8.329-2.5-1.75.538,5.374.6,5.445.311.349.711.078,1.094-.122Z" transform="translate(-121.157 -80.984)" fill="#fed198"/>
    <path id="Path_555" data-name="Path 555" d="M226.428,217.588a7.277,7.277,0,0,1-1.323,4.306l5.213,2.859L235.4,222.1a6.985,6.985,0,0,1-1.5-4.514s-2.147,1.589-3.8,1.6-3.671-1.6-3.671-1.6Z" transform="translate(-187.664 -181.42)" fill="#f0b97d"/>
    <path id="Path_556" data-name="Path 556" d="M197.174,236.124c-1.17,2.525-3.6,2.81-6.209,4.21l10.545,16.915h.108q1.056,0,2.1-.066l8.577-16.84c-2.72-1.466-5.248-1.711-6.362-4.534l-4.318,2.837-4.437-2.524h0Z" transform="translate(-159.118 -196.483)" fill="#f1f1f1"/>
    <path id="Path_557" data-name="Path 557" d="M224.49,231.581l-1.079,2.249,3.207,5.39,2.1-4.109Zm8.519,0h0l1.1,2.2-3.227,5.441-2.1-4.109Z" transform="translate(-186.249 -193.084)" fill="#fff"/>
    <path id="Path_558" data-name="Path 558" d="M105.284,252.777c-2.743,1.271-7.358,1.782-10.489,6.167a34.271,34.271,0,0,0-1.874,3.9c-3.865,4.459-8.946,10.486-9.02,11.433a18.885,18.885,0,0,0-.24,2.941c.12.294,2.748,10.46,2.748,10.46l9.523.188-2.968-11.825,5.062-4.373v19.7h28.808v-19.7l5.062,4.373-2.969,11.825,9.523-.188s2.628-10.166,2.748-10.46a18.909,18.909,0,0,0-.24-2.941c-.074-.947-5.155-6.974-9.02-11.434a34.321,34.321,0,0,0-1.874-3.9c-3.139-4.4-7.766-4.9-10.512-6.176l-5.53,10.493-1.594,2.284-1.521-2.3-5.624-10.464v0Z" transform="translate(-69.93 -210.232)" fill="#2f2e96"/>
    <path id="Path_559" data-name="Path 559" d="M106.6,445.232c2.661,0,4.817,1.339,4.817,2.99s-2.157,2.99-4.817,2.99-4.818-1.339-4.818-2.99S103.944,445.232,106.6,445.232Zm0,.79h0c-2.071,0-3.749.986-3.749,2.2s1.678,2.2,3.749,2.2,3.749-.986,3.749-2.2S108.675,446.022,106.6,446.022Z" transform="translate(-84.86 -371.169)" fill="#ecf0f1"/>
    <path id="Path_560" data-name="Path 560" d="M112.06,454.454c2.064,0,3.749-.988,3.749-2.2s-1.684-2.2-3.749-2.2-3.749.989-3.749,2.2S110,454.454,112.06,454.454Z" transform="translate(-90.306 -375.2)" fill="#377bb9"/>
    <path id="Path_561" data-name="Path 561" d="M111.448,452.923v2.41a.545.545,0,0,1-.543.543h-.959a.544.544,0,0,1-.543-.543V451.6a.544.544,0,0,1,.025-.164v-.821a1.272,1.272,0,0,1,1.269-1.268h7.845a1.272,1.272,0,0,1,1.269,1.268v.82a.541.541,0,0,1,.026.165v3.729a.545.545,0,0,1-.544.543h-.958a.544.544,0,0,1-.544-.543v-2.41h-.751v2.41a.545.545,0,0,1-.543.543h-.958a.544.544,0,0,1-.544-.543v-2.41h-.751v2.41a.545.545,0,0,1-.544.543h-.958a.545.545,0,0,1-.544-.543v-2.41h-.752Z" transform="translate(-91.206 -374.612)" fill="#15ac8b"/>
    <path id="Path_562" data-name="Path 562" d="M356.209,445.232c-2.661,0-4.818,1.339-4.818,2.99s2.157,2.99,4.818,2.99,4.818-1.339,4.818-2.99S358.87,445.232,356.209,445.232Zm0,.79h0c2.07,0,3.749.986,3.749,2.2s-1.679,2.2-3.749,2.2-3.749-.986-3.749-2.2S354.138,446.022,356.209,446.022Z" transform="translate(-292.954 -371.169)" fill="#ecf0f1"/>
    <path id="Path_563" data-name="Path 563" d="M361.664,454.454c2.065,0,3.749-.988,3.749-2.2s-1.684-2.2-3.749-2.2-3.749.989-3.749,2.2S359.6,454.454,361.664,454.454Z" transform="translate(-298.418 -375.2)" fill="#377bb9"/>
    <path id="Path_564" data-name="Path 564" d="M347.293,452.923v2.41a.545.545,0,0,0,.543.543h.958a.544.544,0,0,0,.544-.543V451.6a.544.544,0,0,0-.025-.164v-.821a1.272,1.272,0,0,0-1.269-1.268H340.2a1.272,1.272,0,0,0-1.268,1.268v.82a.527.527,0,0,0-.026.165v3.729a.545.545,0,0,0,.543.543h.958a.544.544,0,0,0,.543-.543v-2.41h.751v2.41a.545.545,0,0,0,.544.543h.958a.544.544,0,0,0,.543-.543v-2.41h.751v2.41a.545.545,0,0,0,.543.543H346a.544.544,0,0,0,.543-.543v-2.41h.753Z" transform="translate(-282.534 -374.612)" fill="#15ac8b"/>
    <path id="Path_565" data-name="Path 565" d="M212.147,250.881l6.416,12.495,6.319-12.49a9.611,9.611,0,0,0,1.012.551l-7.33,14.324-7.4-14.412a9.075,9.075,0,0,0,.979-.47Z" transform="translate(-176.011 -209.111)" fill="#15ac8b"/>
    <path id="Path_566" data-name="Path 566" d="M111.35,296.993h44.227a2.546,2.546,0,0,1,2.567,2.508v23.883a2.546,2.546,0,0,1-2.567,2.509H111.35a2.546,2.546,0,0,1-2.567-2.509V299.5A2.546,2.546,0,0,1,111.35,296.993Z" transform="translate(-90.964 -247.212)" fill="#fff"/>
    <path id="Path_567" data-name="Path 567" d="M109.753,480.944h47.414a.966.966,0,0,1,.975.953v1.836a.966.966,0,0,1-.975.953H109.753a.966.966,0,0,1-.975-.953V481.9A.966.966,0,0,1,109.753,480.944Z" transform="translate(-90.96 -401.031)" fill="#c8cacc"/>
    <g id="Group_250" data-name="Group 250" transform="translate(25.468 60.615)">
      <path id="Path_568" data-name="Path 568" d="M152.023,469.919h4.1v2.792h-4.1Zm29.969,0h4.095v2.792h-4.095Z" transform="translate(-152.023 -452.428)" fill="#ecf0f1"/>
      <path id="Path_569" data-name="Path 569" d="M227.139,363.137h9.086a.221.221,0,0,1,.221.221v2.057a.221.221,0,0,1-.221.221h-9.086a.221.221,0,0,1-.221-.221v-2.057A.221.221,0,0,1,227.139,363.137Z" transform="translate(-214.65 -363.137)" fill="#15ac8b"/>
    </g>
  </g>
</svg>
