<svg xmlns="http://www.w3.org/2000/svg" width="64.112" height="64.11" viewBox="0 0 64.112 64.11">
  <g id="study" transform="translate(0 -0.006)">
    <g id="Group_337" data-name="Group 337" transform="translate(0 0.006)">
      <path id="Path_644" data-name="Path 644" d="M60.355,34.263V28.305a1.878,1.878,0,0,0-1.878-1.878,56.662,56.662,0,0,0-10.916,1A16.958,16.958,0,0,0,40.51,23.34a13.148,13.148,0,1,0-16.908,0,16.961,16.961,0,0,0-7.051,4.083,56.671,56.671,0,0,0-10.916-1,1.878,1.878,0,0,0-1.878,1.878v5.958A5.644,5.644,0,0,0,0,39.575v3.757a5.644,5.644,0,0,0,3.757,5.312V54.6a1.878,1.878,0,0,0,1.878,1.878c9.821,0,17.885,2.327,25.379,7.323a1.884,1.884,0,0,0,2.084,0c7.494-5,15.558-7.323,25.379-7.323A1.878,1.878,0,0,0,60.355,54.6V48.643a5.644,5.644,0,0,0,3.757-5.312V39.575A5.644,5.644,0,0,0,60.355,34.263ZM22.664,13.279a9.391,9.391,0,1,1,9.391,9.391A9.465,9.465,0,0,1,22.664,13.279ZM5.635,45.21a1.88,1.88,0,0,1-1.878-1.878V39.575a1.878,1.878,0,1,1,3.757,0v3.757A1.88,1.88,0,0,1,5.635,45.21ZM30.177,58.869A47,47,0,0,0,7.513,52.75V48.643a5.644,5.644,0,0,0,3.757-5.312V39.575a5.644,5.644,0,0,0-3.757-5.312V30.21c8.825.253,15.919,2.332,22.664,6.626Zm1.878-25.287a44.638,44.638,0,0,0-10.927-5.023A13.175,13.175,0,0,1,28.3,26.427h7.513a13.175,13.175,0,0,1,7.171,2.131A44.636,44.636,0,0,0,32.056,33.582ZM56.6,52.75a47,47,0,0,0-22.664,6.12V36.838c6.745-4.295,13.839-6.374,22.664-6.628v4.053a5.644,5.644,0,0,0-3.757,5.312v3.757A5.644,5.644,0,0,0,56.6,48.643Zm3.757-9.418a1.878,1.878,0,0,1-3.757,0V39.575a1.878,1.878,0,1,1,3.757,0Z" transform="translate(0 -0.006)" fill="#2f2e96"/>
    </g>
  </g>
</svg>
