<svg xmlns="http://www.w3.org/2000/svg" width="1366" height="71.001" viewBox="0 0 1366 71.001">
  <path id="Subtraction_11" data-name="Subtraction 11" d="M1366,71H731.766c75-.977,154.988-5.264,237.747-12.745,66.2-5.984,134.312-14.012,202.432-23.862,60.606-8.763,110.006-17.376,140.776-23.059C1345.828,5.221,1365.307,1.041,1365.5,1V0h.5V71ZM664.939,71H0V0H.5V1c.183.036,21.255,4.173,57.335,10.335,33.275,5.682,86.472,14.3,150.941,23.059,72.462,9.849,144.109,17.878,212.951,23.862C507.715,65.73,589.544,70.017,664.939,71Z" transform="translate(0 0)" fill="#fff"/>
</svg>
