<svg id="video-lesson" xmlns="http://www.w3.org/2000/svg" width="55.272" height="51.587" viewBox="0 0 55.272 51.587">
  <path id="Path_645" data-name="Path 645" d="M54.351,115.006H51.588v-30.4A4.611,4.611,0,0,0,46.982,80v1.842a2.764,2.764,0,0,1,2.764,2.764v30.4H5.527v-30.4a2.764,2.764,0,0,1,2.764-2.764V80a4.611,4.611,0,0,0-4.606,4.606v30.4H.921a.921.921,0,0,0-.921.921v3.685a2.764,2.764,0,0,0,2.764,2.764H52.509a2.764,2.764,0,0,0,2.764-2.764v-3.685A.921.921,0,0,0,54.351,115.006Zm-30.4,1.842h7.37v.921h-7.37Zm29.479,2.764a.921.921,0,0,1-.921.921H2.764a.921.921,0,0,1-.921-.921v-2.764H22.109v.921a1.843,1.843,0,0,0,1.842,1.842h7.37a1.843,1.843,0,0,0,1.842-1.842v-.921H53.43Zm0,0" transform="translate(0 -70.788)" fill="#2f2e96"/>
  <path id="Path_646" data-name="Path 646" d="M90.764,31.321h29.479a2.764,2.764,0,0,0,2.764-2.764V2.764A2.764,2.764,0,0,0,120.242,0H90.764A2.764,2.764,0,0,0,88,2.764V28.557A2.764,2.764,0,0,0,90.764,31.321Zm29.479-1.842H90.764a.921.921,0,0,1-.921-.921V7.37h31.321V28.557A.921.921,0,0,1,120.242,29.479ZM90.764,1.842h29.479a.921.921,0,0,1,.921.921V5.527H89.842V2.764A.921.921,0,0,1,90.764,1.842Zm0,0" transform="translate(-77.867)" fill="#2f2e96"/>
  <path id="Path_647" data-name="Path 647" d="M120,24h1.842v1.842H120Zm0,0" transform="translate(-106.182 -21.236)" fill="#2f2e96"/>
  <path id="Path_648" data-name="Path 648" d="M152,24h1.842v1.842H152Zm0,0" transform="translate(-134.497 -21.236)" fill="#2f2e96"/>
  <path id="Path_649" data-name="Path 649" d="M184,24h1.842v1.842H184Zm0,0" transform="translate(-162.812 -21.236)" fill="#2f2e96"/>
  <path id="Path_650" data-name="Path 650" d="M221.81,129.187l-2.945-1.967A1.842,1.842,0,0,0,216,128.757v3.926a1.842,1.842,0,0,0,2.864,1.537l2.948-1.963a1.843,1.843,0,0,0,0-3.066Zm-3.968,3.5v-3.933l2.948,1.963Zm0,0" transform="translate(-191.127 -112.296)" fill="#2f2e96"/>
  <path id="Path_651" data-name="Path 651" d="M176.291,88a8.291,8.291,0,1,0,8.291,8.291A8.291,8.291,0,0,0,176.291,88Zm0,14.739a6.448,6.448,0,1,1,6.448-6.448A6.448,6.448,0,0,1,176.291,102.739Zm0,0" transform="translate(-148.655 -77.867)" fill="#2f2e96"/>
  <path id="Path_652" data-name="Path 652" d="M152.291,304a2.764,2.764,0,0,0-2.594,1.842H144v1.842h5.7a2.747,2.747,0,0,0,5.188,0h17.673v-1.842H154.885A2.764,2.764,0,0,0,152.291,304Zm0,3.685a.921.921,0,1,1,.921-.921A.921.921,0,0,1,152.291,307.685Zm0,0" transform="translate(-127.418 -268.994)" fill="#2f2e96"/>
  <path id="Path_653" data-name="Path 653" d="M112,312h1.842v3.685H112Zm0,0" transform="translate(-99.103 -276.073)" fill="#2f2e96"/>
  <path id="Path_654" data-name="Path 654" d="M88,312h1.842v3.685H88Zm0,0" transform="translate(-77.867 -276.073)" fill="#2f2e96"/>
  <path id="Path_655" data-name="Path 655" d="M128,152h1.842v1.842H128Zm0,0" transform="translate(-113.261 -134.497)" fill="#2f2e96"/>
  <path id="Path_656" data-name="Path 656" d="M128,120h1.842v1.842H128Zm0,0" transform="translate(-113.261 -106.182)" fill="#2f2e96"/>
  <path id="Path_657" data-name="Path 657" d="M128,184h1.842v1.842H128Zm0,0" transform="translate(-113.261 -162.812)" fill="#2f2e96"/>
</svg>
